<?xml version="1.0" encoding="UTF-8"?>
<mxfile>
  <diagram name="RBAC Flowchart">
    <mxGraphModel dx="1107" dy="649" grid="1" gridSize="10" guides="1" tooltips="1" connect="1" arrows="1" fold="1" page="1" pageScale="1" pageWidth="827" pageHeight="1169" math="0" shadow="0">
      <root>
        <mxCell id="0" />
        <mxCell id="1" parent="0" />
        
        <!-- Users -->
        <mxCell id="2" value="Users" style="shape=rectangle;rounded=1;fillColor=#ADD8E6;strokeColor=#000000;" vertex="1" parent="1">
          <mxGeometry x="100" y="100" width="120" height="60" as="geometry" />
        </mxCell>
        
        <!-- Roles -->
        <mxCell id="3" value="Roles" style="shape=rectangle;rounded=1;fillColor=#90EE90;strokeColor=#000000;" vertex="1" parent="1">
          <mxGeometry x="300" y="100" width="120" height="60" as="geometry" />
        </mxCell>
        
        <!-- Permissions -->
        <mxCell id="4" value="Permissions" style="shape=rectangle;rounded=1;fillColor=#FFD700;strokeColor=#000000;" vertex="1" parent="1">
          <mxGeometry x="500" y="100" width="120" height="60" as="geometry" />
        </mxCell>
        
        <!-- Resources -->
        <mxCell id="5" value="Resources" style="shape=rectangle;rounded=1;fillColor=#FFA07A;strokeColor=#000000;" vertex="1" parent="1">
          <mxGeometry x="700" y="100" width="120" height="60" as="geometry" />
        </mxCell>
        
        <!-- Relationships -->
        <mxCell id="6" edge="1" source="2" target="3" style="edgeStyle=elbowEdgeStyle;rounded=1;strokeColor=#000000;">
          <mxGeometry relative="1" as="geometry" />
        </mxCell>
        
        <mxCell id="7" edge="1" source="3" target="4" style="edgeStyle=elbowEdgeStyle;rounded=1;strokeColor=#000000;">
          <mxGeometry relative="1" as="geometry" />
        </mxCell>
        
        <mxCell id="8" edge="1" source="4" target="5" style="edgeStyle=elbowEdgeStyle;rounded=1;strokeColor=#000000;">
          <mxGeometry relative="1" as="geometry" />
        </mxCell>
      </root>
    </mxGraphModel>
  </diagram>
</mxfile>
